<?xml version="1.0" encoding="iso-8859-1"?>
<!-- Generator: Adobe Illustrator 18.0.0, SVG Export Plug-In . SVG Version: 6.00 Build 0)  -->
<!DOCTYPE svg PUBLIC "-//W3C//DTD SVG 1.1//EN" "http://www.w3.org/Graphics/SVG/1.1/DTD/svg11.dtd">
<svg version="1.1" id="&#x30EC;&#x30A4;&#x30E4;&#x30FC;_1"
	 xmlns="http://www.w3.org/2000/svg" xmlns:xlink="http://www.w3.org/1999/xlink" x="0px" y="0px" viewBox="0 0 1300 650"
	 style="enable-background:new 0 0 1300 650;" xml:space="preserve">
<g>
	<g>
		<g>
			<g>
				<path style="fill:#FFFFFF;stroke:#000000;stroke-miterlimit:10;" d="M1042.726,335.172c0,0-31.175-6.753-30.545-4.665
					c0.63,2.089,5.999,19.878,5.999,19.878L1042.726,335.172z"/>
				<path style="fill:#FFFFFF;stroke:#000000;stroke-miterlimit:10;" d="M1110.596,370.9c0,0,0.988,27.546,3.158,26.453
					c2.17-1.093,20.653-10.404,20.653-10.404L1110.596,370.9z"/>
				<path style="fill:#FFFFFF;stroke:#000000;stroke-miterlimit:10;" d="M1138.592,346.459c0,0,18.109,22.774,19.253,20.852
					s10.891-18.287,10.891-18.287L1138.592,346.459z"/>
				<path style="fill:#FFFFFF;stroke:#000000;stroke-miterlimit:10;" d="M1114.51,291.837c0,0,25.722-16.539,23.43-17.431
					c-2.292-0.892-21.81-8.493-21.81-8.493L1114.51,291.837z"/>
				<path style="fill:#FFFFFF;stroke:#000000;stroke-miterlimit:10;" d="M1139.298,313.49c0,0,31.786,4.167,30.926,2.139
					s-8.189-19.295-8.189-19.295L1139.298,313.49z"/>
				<path style="fill:#FFFFFF;stroke:#000000;stroke-miterlimit:10;" d="M1078.971,286.741c0,0,1.94-27.509-0.337-26.59
					s-21.671,8.751-21.671,8.751L1078.971,286.741z"/>
				<path style="fill:#FFFFFF;stroke:#000000;stroke-miterlimit:10;" d="M1045.643,304.565c0,0-19.049-22.203-20.112-20.248
					c-1.063,1.955-10.119,18.61-10.119,18.61L1045.643,304.565z"/>
			</g>
			<ellipse style="fill:#FFFFFF;stroke:#000000;stroke-miterlimit:10;" cx="1090.125" cy="331.58" rx="38.806" ry="36.187"/>
		</g>
		<g>
			<path style="fill:#FFFFFF;stroke:#000000;stroke-miterlimit:10;" d="M1111.545,458.062
				c-22.163-72.516-19.066-136.572-19.066-136.572s1.041,4.164-18.937,7.818c-30.637,5.603-64.101,4.919-63.909,4.886
				c0,0-61.554-1.488-72.563-7.237c-11.009-5.748-11.009-5.768-11.009-5.768s-8.372,74.883-23.954,136.241
				c-15.582,61.358-80.723,146.308-101.797,184.443l-5.922,9.628h0.968h211.568h211.374
				C1215.974,646.5,1133.708,530.578,1111.545,458.062z"/>
			<path style="fill:#FFFFFF;stroke:#000000;stroke-miterlimit:10;" d="M904.114,449.254c-0.207,0.873,14.155,32.59,39.706,32.59
				s26.325-30.152,26.325-30.152s32.519,33.999,51.101,33.999s35.616-33.999,35.616-33.999s7.743,30.876,27.874,30.876
				s26.809-25.149,26.809-25.149"/>
		</g>
	</g>
	<g>
		<path style="fill:#FFFFFF;stroke:#000000;stroke-miterlimit:10;" d="M174.189,654.5c0,0,139.153-101.169,193.524-108.097
			s76.452,10.875,117.957,8.36c41.505-2.515,158.505-89.248,213.798-94.003c55.293-4.755,139.153,65.52,188.916,69.04
			c49.763,3.52,33.176-33.598,94.919-44.69S1304,654.5,1304,654.5H174.189z"/>
		<g>
			<g>
				<path style="fill:#FFFFFF;stroke:#000000;stroke-miterlimit:10;" d="M581.727,529.758h4.981c1.388,0,2.747-0.463,3.919-1.336
					l0,0c3.217-2.394,4.339-7.286,2.582-11.257l-11.297-25.536l0.003-0.635l-0.142,0.321l-0.142-0.321l0.003,0.635l-11.297,25.536
					c-1.757,3.971-0.635,8.863,2.582,11.257h0c1.173,0.873,2.532,1.336,3.919,1.336H581.727"/>
				<path style="fill:#FFFFFF;stroke:#000000;stroke-miterlimit:10;" d="M575.733,471.705l-15.376,24.489
					c-2.01,3.201-0.635,7.28,3.002,8.906l5.474,2.447c0.888,0.397,1.674,0.96,2.306,1.652l5.292,5.796
					c2.817,3.085,8.025,3.075,10.828-0.021l5.222-5.769c0.631-0.697,1.417-1.264,2.306-1.665l5.424-2.443
					c3.615-1.628,4.984-5.686,2.995-8.879l-15.26-24.496C585.259,467.412,578.435,467.402,575.733,471.705z"/>
				<path style="fill:#FFFFFF;stroke:#000000;stroke-miterlimit:10;" d="M576.941,464.054l-12.301,19.591
					c-1.608,2.561-0.508,5.824,2.401,7.125l4.379,1.958c0.71,0.318,1.339,0.768,1.845,1.322l4.234,4.637
					c2.253,2.468,6.42,2.46,8.662-0.017l4.178-4.615c0.505-0.557,1.133-1.011,1.845-1.332l4.34-1.954
					c2.892-1.303,3.987-4.549,2.396-7.103l-12.208-19.597C584.562,460.619,579.103,460.611,576.941,464.054z"/>
				<path style="fill:#FFFFFF;stroke:#000000;stroke-miterlimit:10;" d="M577.631,458.105l-9.594,15.799
					c-1.254,2.065-0.333,4.664,2.01,5.674l3.528,1.521c0.572,0.247,1.081,0.6,1.492,1.038l3.445,3.665
					c1.834,1.951,5.166,1.901,6.929-0.103l3.284-3.735c0.397-0.451,0.894-0.821,1.459-1.085l3.447-1.608
					c2.297-1.072,3.133-3.68,1.828-5.707l-10.011-15.549C583.684,455.279,579.317,455.329,577.631,458.105z"/>
			</g>
			<g>
				<path style="fill:#FFFFFF;stroke:#000000;stroke-miterlimit:10;" d="M599.604,540.367h4.981c1.388,0,2.747-0.463,3.919-1.336
					l0,0c3.217-2.394,4.339-7.286,2.582-11.257l-11.297-25.536l0.003-0.635l-0.142,0.321l-0.142-0.321l0.003,0.635l-11.297,25.536
					c-1.757,3.971-0.635,8.863,2.582,11.257l0,0c1.173,0.873,2.532,1.336,3.919,1.336H599.604"/>
				<path style="fill:#FFFFFF;stroke:#000000;stroke-miterlimit:10;" d="M593.609,482.314l-15.376,24.489
					c-2.01,3.201-0.635,7.28,3.002,8.906l5.474,2.447c0.888,0.397,1.674,0.96,2.306,1.652l5.292,5.796
					c2.817,3.085,8.025,3.075,10.828-0.021l5.222-5.769c0.631-0.697,1.417-1.264,2.306-1.665l5.424-2.443
					c3.615-1.628,4.984-5.686,2.995-8.879l-15.26-24.496C603.136,478.021,596.311,478.011,593.609,482.314z"/>
				<path style="fill:#FFFFFF;stroke:#000000;stroke-miterlimit:10;" d="M594.817,474.663l-12.301,19.591
					c-1.608,2.561-0.508,5.824,2.401,7.125l4.379,1.958c0.71,0.318,1.339,0.768,1.845,1.322l4.234,4.637
					c2.253,2.468,6.42,2.46,8.662-0.017l4.178-4.615c0.505-0.557,1.133-1.011,1.845-1.332l4.34-1.954
					c2.892-1.303,3.987-4.549,2.396-7.103l-12.208-19.597C602.439,471.228,596.979,471.22,594.817,474.663z"/>
				<path style="fill:#FFFFFF;stroke:#000000;stroke-miterlimit:10;" d="M595.507,468.714l-9.594,15.799
					c-1.254,2.065-0.333,4.664,2.01,5.674l3.528,1.521c0.572,0.247,1.081,0.6,1.492,1.038l3.445,3.665
					c1.834,1.951,5.166,1.901,6.929-0.103l3.284-3.735c0.397-0.451,0.894-0.821,1.459-1.084l3.447-1.608
					c2.297-1.072,3.133-3.68,1.828-5.707l-10.011-15.549C601.56,465.888,597.193,465.938,595.507,468.714z"/>
			</g>
			<g>
				<path style="fill:#FFFFFF;stroke:#000000;stroke-miterlimit:10;" d="M563.851,542.249h4.981c1.388,0,2.747-0.463,3.919-1.336
					l0,0c3.217-2.394,4.339-7.286,2.582-11.257l-11.297-25.536l0.003-0.635l-0.142,0.321l-0.142-0.321l0.003,0.635l-11.297,25.536
					c-1.757,3.971-0.635,8.863,2.582,11.257l0,0c1.173,0.873,2.532,1.336,3.919,1.336H563.851"/>
				<path style="fill:#FFFFFF;stroke:#000000;stroke-miterlimit:10;" d="M557.857,484.196l-15.377,24.489
					c-2.01,3.201-0.635,7.28,3.002,8.906l5.474,2.447c0.888,0.397,1.674,0.96,2.306,1.652l5.292,5.796
					c2.817,3.085,8.025,3.075,10.828-0.021l5.222-5.769c0.631-0.697,1.417-1.264,2.306-1.665l5.424-2.443
					c3.615-1.628,4.984-5.686,2.995-8.879l-15.26-24.496C567.383,479.903,560.559,479.893,557.857,484.196z"/>
				<path style="fill:#FFFFFF;stroke:#000000;stroke-miterlimit:10;" d="M559.065,476.545l-12.301,19.591
					c-1.608,2.561-0.508,5.824,2.401,7.125l4.379,1.958c0.71,0.318,1.339,0.768,1.845,1.322l4.234,4.637
					c2.253,2.468,6.42,2.46,8.662-0.017l4.178-4.615c0.505-0.557,1.133-1.011,1.845-1.332l4.34-1.954
					c2.892-1.303,3.987-4.549,2.396-7.103l-12.208-19.597C566.686,473.11,561.227,473.102,559.065,476.545z"/>
				<path style="fill:#FFFFFF;stroke:#000000;stroke-miterlimit:10;" d="M559.755,470.596l-9.594,15.799
					c-1.254,2.065-0.333,4.664,2.01,5.674l3.528,1.521c0.572,0.247,1.081,0.6,1.492,1.038l3.445,3.665
					c1.834,1.951,5.166,1.901,6.929-0.103l3.284-3.735c0.397-0.451,0.894-0.821,1.459-1.085l3.447-1.608
					c2.297-1.072,3.133-3.68,1.828-5.707l-10.011-15.549C565.808,467.77,561.441,467.82,559.755,470.596z"/>
			</g>
		</g>
		<g>
			<path style="fill:none;stroke:#000000;stroke-miterlimit:10;" d="M621.022,564.213"/>
			<path style="fill:none;stroke:#000000;stroke-miterlimit:10;" d="M654.808,527.853c4.437-12.763,23.089-11.031,23.089-11.031
				s51.25-6.134,62.727,11.031c5.308,7.938-31.853,11.146-28.164,22.092s35.542,11.011,35.542,20.646s-38.077,30.761-76.831,27.46
				c-38.754-3.301-52.28-18.045-47.771-37.267c4.509-19.222,41.043-15.745,45.086-23.678
				C672.53,529.173,650.371,540.616,654.808,527.853z"/>
			<path style="fill:none;stroke:#000000;stroke-miterlimit:10;" d="M640.296,574.92c2.638,5.373,8.99,8.007,14.202,5.889"/>
			<path style="fill:none;stroke:#000000;stroke-miterlimit:10;" d="M631.526,572.596c0,8.634,11.881,15.621,26.564,15.621"/>
		</g>
	</g>
	<path style="fill:#FFFFFF;stroke:#000000;stroke-miterlimit:10;" d="M36.879,603.267"/>
	<g>
		<g>
			<path style="fill:#FFFFFF;stroke:#000000;stroke-miterlimit:10;" d="M83.83,466.5c-5.893,0-11.458-8.363-6.329-16.407
				s20.215,0.169,20.215,0.169s-8.276-10.586,0-17.152c8.276-6.566,18.996,7.265,18.996,7.265s11.358-9.172,17.233-7.038
				c5.875,2.134,3.133,17.083,3.133,17.083s11.75-7.063,18.8-0.332c7.05,6.731,2.742,16.412-7.833,16.412
				C137.47,466.5,89.723,466.5,83.83,466.5z"/>
			<path style="fill:#FFFFFF;stroke:#000000;stroke-miterlimit:10;" d="M152.025,435.5c-5.893,0-11.458-8.921-6.329-16.849
				c5.129-7.928,20.215-0.173,20.215-0.173s-8.276-10.603,0-17.075c8.276-6.472,18.996,7.076,18.996,7.076
				s11.358-9.082,17.233-6.979s3.133,16.816,3.133,16.816s11.75-6.293,18.8,0.34s2.742,16.843-7.833,16.843
				C205.664,435.5,157.918,435.5,152.025,435.5z"/>
		</g>
		<path style="fill:#FFFFFF;stroke:#000000;stroke-miterlimit:10;" d="M3.703,652.73c0,0,91.906-57.773,135.177-61.582
			c43.272-3.809,91.522,21.229,125.619,19.119s77.047-31.619,134.545-33.018c57.498-1.399,156.6,74.642,156.6,74.642L3.703,652.73z"
			/>
		<g>
			<g>
				<path style="fill:#FFFFFF;stroke:#000000;stroke-miterlimit:10;" d="M162.694,616.014h4.981c1.388,0,2.747-0.463,3.919-1.336
					l0,0c3.217-2.394,4.339-7.286,2.582-11.257l-11.297-25.536l0.003-0.635l-0.142,0.321l-0.142-0.321l0.003,0.635l-11.297,25.536
					c-1.757,3.971-0.635,8.863,2.582,11.257l0,0c1.173,0.873,2.532,1.336,3.919,1.336H162.694"/>
				<path style="fill:#FFFFFF;stroke:#000000;stroke-miterlimit:10;" d="M156.7,557.961l-15.376,24.489
					c-2.01,3.201-0.635,7.28,3.002,8.906l5.474,2.447c0.888,0.397,1.674,0.96,2.306,1.652l5.292,5.796
					c2.817,3.085,8.025,3.075,10.828-0.021l5.222-5.769c0.631-0.697,1.417-1.264,2.306-1.665l5.424-2.443
					c3.615-1.628,4.984-5.686,2.995-8.879l-15.26-24.496C166.226,553.668,159.402,553.658,156.7,557.961z"/>
				<path style="fill:#FFFFFF;stroke:#000000;stroke-miterlimit:10;" d="M157.908,550.31l-12.301,19.591
					c-1.608,2.561-0.508,5.824,2.401,7.125l4.379,1.958c0.71,0.318,1.339,0.768,1.845,1.322l4.234,4.637
					c2.253,2.468,6.42,2.46,8.662-0.017l4.178-4.615c0.505-0.557,1.133-1.011,1.845-1.332l4.34-1.954
					c2.892-1.303,3.987-4.549,2.396-7.103l-12.208-19.597C165.529,546.875,160.07,546.867,157.908,550.31z"/>
				<path style="fill:#FFFFFF;stroke:#000000;stroke-miterlimit:10;" d="M158.598,544.361l-9.594,15.799
					c-1.254,2.065-0.333,4.664,2.01,5.674l3.528,1.521c0.572,0.247,1.081,0.6,1.492,1.038l3.445,3.665
					c1.834,1.951,5.166,1.901,6.929-0.103l3.284-3.735c0.397-0.451,0.894-0.821,1.459-1.084l3.447-1.608
					c2.297-1.072,3.133-3.68,1.828-5.707l-10.011-15.549C164.651,541.535,160.284,541.585,158.598,544.361z"/>
			</g>
			<g>
				<path style="fill:#FFFFFF;stroke:#000000;stroke-miterlimit:10;" d="M197.303,626.659h4.981c1.388,0,2.747-0.463,3.919-1.336h0
					c3.217-2.394,4.339-7.286,2.582-11.257l-11.297-25.536l0.003-0.635l-0.142,0.321l-0.142-0.321l0.003,0.635l-11.297,25.536
					c-1.757,3.971-0.635,8.863,2.582,11.257h0c1.173,0.873,2.532,1.336,3.919,1.336H197.303"/>
				<path style="fill:#FFFFFF;stroke:#000000;stroke-miterlimit:10;" d="M191.308,568.607l-15.376,24.489
					c-2.01,3.201-0.635,7.28,3.002,8.906l5.474,2.447c0.888,0.397,1.674,0.96,2.306,1.652l5.292,5.796
					c2.817,3.085,8.025,3.075,10.828-0.021l5.222-5.769c0.631-0.697,1.417-1.264,2.306-1.665l5.424-2.443
					c3.615-1.628,4.984-5.686,2.995-8.879l-15.26-24.496C200.835,564.314,194.01,564.303,191.308,568.607z"/>
				<path style="fill:#FFFFFF;stroke:#000000;stroke-miterlimit:10;" d="M192.517,560.955l-12.301,19.591
					c-1.608,2.561-0.508,5.824,2.401,7.125l4.379,1.958c0.71,0.318,1.339,0.768,1.845,1.322l4.234,4.637
					c2.253,2.468,6.42,2.46,8.662-0.016l4.178-4.615c0.505-0.557,1.133-1.011,1.845-1.332l4.34-1.954
					c2.892-1.303,3.987-4.549,2.396-7.103l-12.208-19.597C200.138,557.521,194.678,557.513,192.517,560.955z"/>
				<path style="fill:#FFFFFF;stroke:#000000;stroke-miterlimit:10;" d="M193.206,555.007l-9.594,15.799
					c-1.254,2.065-0.333,4.664,2.01,5.674l3.528,1.521c0.572,0.247,1.081,0.6,1.492,1.038l3.445,3.665
					c1.834,1.951,5.166,1.901,6.929-0.103l3.284-3.735c0.397-0.451,0.894-0.821,1.459-1.084l3.447-1.608
					c2.297-1.072,3.133-3.68,1.828-5.707l-10.011-15.549C199.26,552.181,194.892,552.231,193.206,555.007z"/>
			</g>
		</g>
	</g>
</g>
</svg>
