<?xml version="1.0" encoding="iso-8859-1"?>
<!-- Generator: Adobe Illustrator 18.0.0, SVG Export Plug-In . SVG Version: 6.00 Build 0)  -->
<!DOCTYPE svg PUBLIC "-//W3C//DTD SVG 1.1//EN" "http://www.w3.org/Graphics/SVG/1.1/DTD/svg11.dtd">
<svg version="1.1" id="&#x30EC;&#x30A4;&#x30E4;&#x30FC;_1"
	 xmlns="http://www.w3.org/2000/svg" xmlns:xlink="http://www.w3.org/1999/xlink" x="0px" y="0px" viewBox="0 0 512 512"
	 style="enable-background:new 0 0 512 512;" xml:space="preserve">
<g>
	<path style="fill:#22B573;stroke:#000000;stroke-miterlimit:10;" d="M252.092,363.698l-7.843,112.292
		c-0.925,13.211-12.379,23.173-25.59,22.249c-12.911-0.901-22.718-11.913-22.292-24.739l3.873-112.506
		c0.496-14.33,12.512-25.547,26.846-25.052c14.328,0.492,25.547,12.512,25.051,26.842
		C252.131,363.05,252.107,363.428,252.092,363.698z"/>
	<path style="fill:#22B573;stroke:#000000;stroke-miterlimit:10;" d="M115.071,131.039c-7.685-2.112-15.365,2.532-17.051,10.327
		l-5.911,27.213c-1.692,7.792-0.472,20.157,2.711,27.464l46.829,107.695c3.179,7.309,11.885,10.985,19.342,8.163l4.056-1.53
		c7.46-2.818,12.966-11.626,12.237-19.568l-12.099-131.914c-0.729-7.942-7.615-16.163-15.302-18.279L115.071,131.039z"/>
	<g>
		<path style="fill:#22B573;stroke:#000000;stroke-miterlimit:10;" d="M220.843,112.396c22.698-7.348,34.927-32.93,26.71-55.929
			c-8.232-23.04-33.578-35.194-55.976-26.791c-22.256,8.327-33.789,34.635-25.006,57.01
			C174.954,108.04,199.053,119.439,220.843,112.396z"/>
		<path style="fill:#22B573;stroke:#000000;stroke-miterlimit:10;" d="M375.293,162.65l-160.511-30.316
			c-0.991-0.176-2.163-0.339-3.196-0.41c-14.985-1.035-27.988,10.175-29.229,25.11c-1.644,4.731-2.314,9.878-1.693,15.188
			l12.894,110.705c0.539,4.642,1.993,8.956,4.145,12.786c2.179,10.293,9.689,19.148,20.446,22.516l94.266,29.509l30.762,79.399
			c4.782,12.342,18.674,18.476,31.016,13.694s18.476-18.674,13.694-31.016l-34.917-90.123c-2.218-5.671-6.615-10.559-12.626-13.206
			l-1.307-0.577l-77.839-34.277l-9.544-81.913l110.362,7.637l67.253,210.025c1.731,5.403,7.513,8.382,12.916,6.651
			c0.199-0.062,0.395-0.132,0.588-0.207c5.029-1.948,7.732-7.505,6.063-12.709l-66.182-206.672c3.447-2.579,5.993-6.39,6.855-10.958
			C391.336,173.801,384.972,164.476,375.293,162.65z"/>
	</g>
</g>
</svg>
