<?xml version="1.0" encoding="iso-8859-1"?>
<!-- Generator: Adobe Illustrator 18.0.0, SVG Export Plug-In . SVG Version: 6.00 Build 0)  -->
<!DOCTYPE svg PUBLIC "-//W3C//DTD SVG 1.1//EN" "http://www.w3.org/Graphics/SVG/1.1/DTD/svg11.dtd">
<svg version="1.1" id="&#x30EC;&#x30A4;&#x30E4;&#x30FC;_1"
	 xmlns="http://www.w3.org/2000/svg" xmlns:xlink="http://www.w3.org/1999/xlink" x="0px" y="0px" viewBox="0 0 512 512"
	 style="enable-background:new 0 0 512 512;" xml:space="preserve">
<g>
	<g>
		<path style="fill:#22B573;stroke:#000000;stroke-miterlimit:10;" d="M124.57,138.366c2.268,16.01,15.973,27.126,30.398,25.083
			c14.87-2.106,24.507-16.53,22.239-32.539c-2.202-15.547-15.466-26.726-30.336-24.62
			C132.446,108.333,122.368,122.819,124.57,138.366z"/>
		<path style="fill:#22B573;stroke:#000000;stroke-miterlimit:10;" d="M81.122,455.177l21.465,10.94l34.264-127.988l23.252,20.489
			l16.238,44.347l-16.775,52.755l10.938,0.776l13.916-33.214l10.449,21.839l3.791,8.326l28.178-11.923l-26.981-71.27l34.417-96.299
			l3.591,0.894l4.438,0.774l3.131-17.705c-3.295-1.867-7.015-3.669-10.744-5.479c-16.337-8.414-32.134-15.97-48.9-24.324
			c-15.621-31.988-37.091-67.109-29.335-54.151c-1.034-1.252-2.565-2.901-4.044-4.09l-16.058-3.323l-22.666,11.138l-11.42,20.274
			c2.036-10.082,4.073-20.164,6.542-30.312c-9.037-5.716-17.07-7.376-24.945-4.861c-6.46,24.706-12.924,49.409-19.373,74.109
			c6.612,13.057,17.309,15.277,25.124,6.239c0.361-0.515,1.585-7.221,1.874-8.193c-1.637,28.218,0.924,55.379,8.307,67.858
			L81.122,455.177z M146.393,277.068c3.89-12.211,8.215-24.487,12.051-37.158l8.96,11.325l6.329,7.966l48.079,12.317l-28.322,78.178
			c-5.19-9.063-10.303-17.664-15.851-26.213C167.606,307.652,157.208,292.331,146.393,277.068z"/>
	</g>
	<path style="fill:none;stroke:#000000;stroke-miterlimit:10;" d="M317.533,88.608c2.397,16.922,17.006,28.374,32.294,26.209
		c15.276-2.164,26.133-17.224,23.736-34.146c-2.332-16.46-17.01-28.374-32.286-26.21C325.989,56.627,315.201,72.148,317.533,88.608z
		"/>
	<path style="fill:none;stroke:#000000;stroke-miterlimit:10;" d="M263.003,437.305l10.568,7.361l11.971,8.098l40.751-143.367
		l29.65,28.913l11.161,32.934l-22.872,64.815l15.474-0.798l15.387-38.098l14.557,38.527l5.325-2.157l24.855-10.981l-25.906-78.891
		l38.612-103.422l9.373,1.933l5.596-18.518l-65.151-35.088c-9.773-20.073-19.603-40.605-29.383-60.677
		c-0.482-0.391-0.972-0.789-1.459-1.188c-9.305-7.549-17.953-10.523-25.593-9.441c-21.282,2.556-31.619,21.282-37.958,46.898
		l9.622-51.274c-5.989-5.676-14.148-8.257-23.984-7.327c-8.354,29.637-14.592,58.971-22.467,89.008
		c5.308,9.977,13.174,13.525,25.269,7.149c2.837-1.337,5.064-10.048,2.408-1.276c-2.008,13.347-4.305,27.665-3.832,40.193
		c1.923,10.456,5.756,19.239,11.462,25.899L263.003,437.305z M339.723,242.187c1.647-12.828,6.201-26.531,13.791-40.201
		c3.197,4.21,6.816,8.365,10.499,12.973c0,0,0.486,0.395,0.551,0.853l53.492,19.945l-31.706,81.926l-10.095-16.299L339.723,242.187z
		"/>
</g>
</svg>
