<?xml version="1.0" encoding="iso-8859-1"?>
<!-- Generator: Adobe Illustrator 18.0.0, SVG Export Plug-In . SVG Version: 6.00 Build 0)  -->
<!DOCTYPE svg PUBLIC "-//W3C//DTD SVG 1.1//EN" "http://www.w3.org/Graphics/SVG/1.1/DTD/svg11.dtd">
<svg version="1.1" id="&#x30EC;&#x30A4;&#x30E4;&#x30FC;_1"
	 xmlns="http://www.w3.org/2000/svg" xmlns:xlink="http://www.w3.org/1999/xlink" x="0px" y="0px" viewBox="0 0 512 512"
	 style="enable-background:new 0 0 512 512;" xml:space="preserve">
<g>
	<g>
		<path style="fill:#22B573;stroke:#000000;stroke-miterlimit:10;" d="M366.716,88.577c-2.611-10.672-14.51-17.459-26.559-15.135
			c-12.058,2.308-19.714,12.831-17.099,23.503c2.602,10.703,14.474,17.474,26.545,15.166
			C361.649,109.808,369.314,99.288,366.716,88.577z"/>
		<path style="fill:#22B573;stroke:#000000;stroke-miterlimit:10;" d="M329.22,117.321c-0.163-0.574-0.265-1.148-0.494-1.718
			c-0.066-0.141-0.154-0.258-0.225-0.402l-0.071-0.199l-0.035,0.008c-1.619-3.487-4.428-6.205-7.855-7.997l0.04-0.074l-1.12-0.496
			c-0.287-0.125-0.565-0.258-0.856-0.375l-32.239-14.206L269.28,56.487l-12.485,3.897l13.019,40.239
			c0.82,2.05,2.496,3.741,4.693,4.709l13.085,5.771l-39.6,12.82c-0.141,0.051-0.26,0.125-0.406,0.176l-53.391-13.866
			c-2.443-0.636-5.045-0.554-7.427,0.226l-57.307,18.786l8.203,19.618l53.638-17.584l41.443,10.766l-31.467,10.422
			c-0.957,0.312-1.857,0.738-2.69,1.261l-48.61,30.485l13.659,17.072l47.353-29.7l46.643-15.448c1.12-0.168,2.236-0.418,3.343-0.781
			l55.309-17.908l5.553,16.436l-24.221,30.173l10.227,7.427l31.794-30.442c1.989-2.152,2.642-5.037,1.742-7.693L329.22,117.321z"/>
	</g>
	<g>
		<g>
			<path style="fill:#FFFFFF;stroke:#000000;stroke-miterlimit:10;" d="M225.45,233.705c1.835,10.801,13.178,18.243,25.412,16.619
				c12.199-1.624,20.605-11.676,18.779-22.484c-1.808-10.797-13.187-18.251-25.381-16.635
				C232.026,212.834,223.616,222.904,225.45,233.705"/>
			<path style="fill:#FFFFFF;stroke:#000000;stroke-miterlimit:10;" d="M309.77,208.288l-19.93,36.022l-36.208,15.276
				c-2.033-0.383-4.115-0.617-6.205-0.617c-0.075,0-0.137,0-0.212,0c-1.654,0.02-3.149,0.195-4.578,0.441l-35.803-15.1
				L186.9,208.288l-12.119,4.721l20.093,44.328c0.737,0.609,1.566,1.121,2.47,1.503l33.5,15.459l0.635,52.059
				c0.004,0.184,0.057,0.344,0.066,0.527l-13.081,43.484c-0.278,0.89-0.419,1.8-0.423,2.722l-0.335,57.3l23.621,0.109l0.326-55.914
				l8.406-27.967l7.383,29.728l7.445,55.457l23.463-2.468l-7.546-56.218c-0.075-0.515-0.181-1.015-0.335-1.515L269.231,326.5
				c0.009-0.176,0.062-0.336,0.053-0.512l-0.644-52.989l30.7-14.163c0.9-0.383,1.733-0.894,2.465-1.503l20.098-44.328
				L309.77,208.288z"/>
		</g>
		<g>
			<path style="fill:#FFFFFF;stroke:#000000;stroke-miterlimit:10;" d="M74.999,254.967c11.211-4.569,16.128-16.287,10.973-26.225
				c-5.134-9.922-18.408-14.28-29.611-9.723c-11.237,4.584-16.142,16.326-10.986,26.252
				C50.526,255.201,63.77,259.539,74.999,254.967z"/>
			<path style="fill:#FFFFFF;stroke:#000000;stroke-miterlimit:10;" d="M129.571,373.873l-14.4-48.709l-0.101,0.031
				c-0.106-0.445-0.146-0.894-0.291-1.335l-13.359-39.216l16.322,3.401c0.719,0.152,1.442,0.23,2.165,0.23
				c2.346,0,4.64-0.769,6.408-2.21l32.442-29.888l-8.966-8.61l-32.605,23.187l-22.157-4.627l23.233-16.998
				c1.746-1.531,2.752-3.608,2.796-5.775l-1.874-41.825l-13.222-0.242l-3.722,38.338l-34.868,25.124
				c-0.079,0.062-0.159,0.117-0.238,0.172l-0.754,0.547l0.071,0.074c-5.081,4.209-7.383,10.719-5.239,17.01l16.384,48.092
				l-0.106,45.663l-14.624,49.74l22.867,5.268l15.013-51.04c0.256-0.871,0.384-1.769,0.379-2.667l0.071-32.695
				c0.075-0.016,0.15-0.027,0.221-0.043l2.32,24.245l2.77,9.395l5.561,54.602l23.529-1.87l-5.654-55.535
				C129.88,375.08,129.752,374.471,129.571,373.873z"/>
		</g>
		<path style="fill:#FFFFFF;stroke:#000000;stroke-miterlimit:10;" d="M162.921,273.336c0,0,0.675-0.457,1.751-1.359
			c1.111-0.867,2.629-2.155,4.362-3.788c1.826-1.542,3.599-3.643,5.654-5.721c0.975-1.089,1.866-2.288,2.827-3.46
			c0.9-1.211,2.011-2.312,2.748-3.632c0.811-1.277,1.614-2.55,2.408-3.799c0.842-1.218,1.552-2.472,2.051-3.753
			c1.028-2.55,2.395-4.76,2.849-6.861c1.032-4.108,1.72-6.837,1.72-6.837l7.7,1.414c0,0-1.283,2.995-3.202,7.474
			c-0.904,2.234-2.77,4.494-4.331,7.056c-0.763,1.296-1.742,2.526-2.84,3.71c-1.05,1.203-2.108,2.421-3.175,3.639
			c-0.988,1.261-2.333,2.269-3.462,3.385c-1.191,1.074-2.293,2.179-3.466,3.151c-2.452,1.859-4.565,3.721-6.664,5.041
			c-1.998,1.406-3.727,2.503-4.975,3.218C163.662,272.965,162.921,273.336,162.921,273.336z"/>
		<path style="fill:#FFFFFF;stroke:#000000;stroke-miterlimit:10;" d="M386.583,255.623c0,0-3.343-1.73-7.916-4.92
			c-4.582-3.171-10.439-7.778-15.48-13.179c-2.523-2.687-4.935-5.494-6.889-8.341c-2.055-2.784-3.661-5.588-4.909-8.048
			c-1.283-2.456-2.165-4.592-2.673-6.123c-0.569-1.519-0.886-2.39-0.886-2.39l8.75-1.613c0,0,0.159,0.777,0.432,2.144
			c0.221,1.382,0.679,3.335,1.455,5.654c0.75,2.316,1.76,5.033,3.224,7.814c1.35,2.835,3.158,5.744,5.116,8.579
			c3.903,5.701,8.829,10.906,12.785,14.581C383.566,253.483,386.583,255.623,386.583,255.623z"/>
		<g>
			<path style="fill:#FFFFFF;stroke:#000000;stroke-miterlimit:10;" d="M455.635,240.613c-11.202-4.557-24.477-0.199-29.606,9.723
				c-5.156,9.934-0.247,21.656,10.968,26.225c11.233,4.569,24.468,0.23,29.628-9.696
				C471.781,256.94,466.877,245.198,455.635,240.613z"/>
			<path style="fill:#FFFFFF;stroke:#000000;stroke-miterlimit:10;" d="M445.818,286.574L445.818,286.574l-34.272-24.768
				l-3.722-38.338l-13.218,0.242l-1.879,41.829c0.048,2.167,1.05,4.245,2.801,5.775l23.679,17.373l-25.174-15.467
				c-2.598-2.222-3.863-4.842-3.925-7.646l0.75-16.724l-3.078-7.985l-12.777,3.018l9.31,40.626c0.811,2.687,3.065,4.838,6.033,5.752
				l25.059,7.7l-16.389,48.08c-0.172,0.504-0.212,1.007-0.331,1.519l-0.115-0.031l-13.614,49.021
				c-0.19,0.594-0.318,1.214-0.379,1.824l-5.663,55.539l23.533,1.874l5.566-54.605l1.817-6.556l2.289-26.202l-0.115,31.352
				c0,0.894,0.128,1.796,0.379,2.667l15.013,51.04l22.867-5.272l-14.633-49.724l0.168-44.5l16.785-49.26
				C454.934,297.823,451.97,290.674,445.818,286.574z"/>
		</g>
	</g>
</g>
</svg>
